<?xml version="1.0" encoding="UTF-8"?><svg id="Capa_1" xmlns="http://www.w3.org/2000/svg" viewBox="0 0 790 544.97"><defs><style>.cls-1{fill:#fff;}</style></defs><path d="M306.7,356.55c-.71.96-4.6,3.34-6.15,3.34H88.45c-10.73-1.44-10.83-24.3,1.03-25.08h211.05c9.83-.23,10.01,16.56,6.18,21.74Z"/><path d="M557.65,82.18c1.89,2.02,4.03,6.38,4.37,9.13,1.07,8.68,1.18,43.6-.46,51.58-2.97,14.45-21.26,18.94-31.87,26.13-40.14,27.22-27.84,83.06-28.66,124.25-.25,12.51-8.8,22.6-21.49,23.6l-165.59-.49c-2.85-1.26-4.79-3.42-5.52-6.48l-.16-227.32c1.34-4.01,5.04-5.67,9.18-5.8l227.09.02c4.59.24,9.95,2,13.12,5.38ZM338.71,101.05c-3,.67-5.19,3.36-5.65,6.35-.5,3.19-.51,21.08.46,23.42,2.86,6.85,23.8,7.11,26.74.79,1.42-3.06,1.28-24.2-.38-27.15-2.67-4.75-16.33-4.48-21.17-3.4ZM396.71,101.04c-7.87,2.3-7.14,26.34-3.75,31.34,3.54,5.23,23.64,4.97,26.31-.78,1.16-2.5,1.3-24.12.22-26.74-.53-1.28-3.46-3.71-5-4-2.31-.44-15.75-.41-17.77.18ZM456.71,101.05c-2.29.51-5.24,2.95-5.69,5.31-.62,3.31-.38,22.62.73,25.22,2.68,6.26,22.65,6.22,26.3-.19,1.54-2.71,1.53-23.17.19-26.3-2.36-5.54-16.45-5.18-21.54-4.04ZM514.71,101.04c-1.63.48-4.36,3.6-4.68,5.32-.62,3.27-.37,22.64.73,25.22,2.56,5.97,20.91,5.94,24.69,1.19,2.27-2.86,2.31-24.17.81-27.69-2.28-5.35-16.88-5.4-21.54-4.05ZM341.76,256.1c-3.86.61-7.61,2.21-8.55,6.44-.73,3.25-.69,22.38.24,25.34,2.24,7.15,22.63,6.65,26.03,1.92,2.38-3.31,2.19-24.43.59-28.55-2.35-6.04-12.84-6.02-18.31-5.16ZM400.76,256.1c-4.52.66-8.18,1.82-9.33,6.67-1.3,5.47-1.48,23.71,2.51,27.62,4.26,4.17,24.56,5.07,26-4.12.57-3.67.58-21.38-.39-24.49-2.02-6.47-13.27-6.49-18.79-5.69ZM451.29,259.12c-2.1,2.54-1.94,26.97-.18,30.1,3.03,5.39,21.74,5.41,24.77,0,1.54-2.75,1.84-25.35.59-28.36-2.69-6.48-21.12-6.66-25.18-1.74Z"/><path class="cls-1" d="M400.76,256.1c5.52-.81,16.77-.78,18.79,5.69.97,3.12.96,20.83.39,24.49-1.44,9.19-21.74,8.29-26,4.12-3.99-3.91-3.81-22.16-2.51-27.62,1.15-4.85,4.81-6.01,9.33-6.67Z"/><path class="cls-1" d="M341.76,256.1c5.47-.86,15.96-.88,18.31,5.16,1.6,4.12,1.78,25.24-.59,28.55-3.4,4.73-23.79,5.22-26.03-1.92-.93-2.96-.96-22.09-.24-25.34.95-4.23,4.69-5.84,8.55-6.44Z"/><path class="cls-1" d="M396.71,101.04c2.02-.59,15.46-.62,17.77-.18,1.54.29,4.47,2.72,5,4,1.09,2.62.94,24.24-.22,26.74-2.67,5.76-22.77,6.01-26.31.78-3.39-5-4.12-29.04,3.75-31.34Z"/><path class="cls-1" d="M451.29,259.12c4.07-4.92,22.49-4.74,25.18,1.74,1.25,3.01.95,25.61-.59,28.36-3.04,5.41-21.74,5.39-24.77,0-1.76-3.13-1.92-27.56.18-30.1Z"/><path class="cls-1" d="M456.71,101.05c5.08-1.14,19.18-1.49,21.54,4.04,1.34,3.13,1.35,23.6-.19,26.3-3.65,6.41-23.62,6.46-26.3.19-1.11-2.6-1.35-21.91-.73-25.22.44-2.36,3.39-4.8,5.69-5.31Z"/><path class="cls-1" d="M338.71,101.05c4.85-1.08,18.5-1.35,21.17,3.4,1.66,2.95,1.8,24.09.38,27.15-2.94,6.33-23.89,6.06-26.74-.79-.97-2.34-.96-20.23-.46-23.42.47-2.98,2.65-5.68,5.65-6.35Z"/><path class="cls-1" d="M514.71,101.04c4.66-1.36,19.26-1.31,21.54,4.05,1.5,3.51,1.47,24.83-.81,27.69-3.77,4.74-22.13,4.78-24.69-1.19-1.1-2.58-1.36-21.95-.73-25.22.33-1.71,3.05-4.84,4.68-5.32Z"/><path d="M96.71,74.05l197.03.54c2.94,1.53,4.45,4.34,4.3,7.7l-.81,232.29c-2.11,4.31-6.29,4.92-10.7,5.3l-189.09-.98c-3.18-.71-4.9-2.99-6.2-5.8l-.3-230.8c-.18-3.93,1.98-7.16,5.76-8.24ZM138,96.84h-22v202h22V96.84Z"/><path d="M239,28.84c18.79,1.36,40.06-1.81,58.55-.05,6.88.65,10.92,4.76,11.38,11.7.11,1.74-.76,12.35-1.14,13.65-1.41,4.85-9.71,6.96-14.25,6.75l-203.6-.49c-4.17-.43-8.22-3.94-8.89-8.11-.42-2.64-.51-14.51.15-16.74,1.04-3.55,6.69-6.42,10.25-6.75,18.55-1.71,39.71,1.37,58.55.05V11.34c0-3.94,4.83-10.9,9.48-10.52,22.05,1.99,48.54-2.58,70.05,0,2.86.34,9.48,3.52,9.48,6.52v21.5Z"/><path d="M530,507.34c-.33,3.53-1.85,9.51-2.97,13.03-9.72,30.6-58.27,31.57-77.01,8.94l12.62-11.4c19.58,16.69,47.75,10.31,45.35-19.07-21.19,22.02-53.45,9.16-60.5-18.99-8.66-34.61,12.94-72.73,51.83-57.83l8.67,6.82v-7.99h22.01v86.5ZM483.74,438.08c-21.63,3.69-23.84,56.93,8.7,51.7,22.43-3.61,22.78-57.07-8.7-51.7Z"/><path d="M113,507.84h-23.5l-10.46-27.54-44.88-.29-9.16,27.83H0l43.61-122.06c6.89.98,16.4-1.13,22.89.06,1.12.2,1.91.49,2.41,1.59l44.09,120.41ZM40,461.84h31.5l1.1-2.07-15.62-45.93-16.99,48Z"/><path d="M654,507.84h-23l-9.96-27.54-45.15.14-8.89,27.41h-24l44.46-122.07,23.05,1.05,43.48,121.02ZM582,461.84h31.5l1.07-2.03-15.58-45.96-16.99,48Z"/><path d="M690,463.84v44h-22v-122h54.5c.81,0,8.09,2.04,9.48,2.52,32.47,11.44,32.06,61.41,0,72.95-1.14.41-8.04,2.52-8.48,2.52h-33.5ZM690,444.84h27.5c.76,0,6.12-2.17,7.21-2.79,11.8-6.77,10.84-28.05-.78-34.64-.77-.43-7.04-2.57-7.43-2.57h-26.5v40Z"/><path d="M273.5,507.84l-2-7c-12.75,16.79-52.45,12.8-56.27-9.74-3.06-18.1,7.6-28.93,24.52-32.01,4.75-.86,29.8-.8,30.28-2.92,1.35-14.49-7.48-21.44-21.47-19.27-10.42,1.62-8.49,13.04-11.18,13.86l-20.39-2.93c2.13-25.48,24.44-31.19,46.5-28.99,15.17,1.51,29.51,13.29,29.51,29.49v59.5h-19.5ZM270,471.84h-19.5c-3.64,0-10.35,3.63-11.29,7.71-4.42,19.36,28.46,17.46,30.72,2.73.5-3.29-.21-7.07.06-10.44Z"/><path d="M204,507.84h-22v-54.5c0-3.9-4.08-11.29-7.5-13.5-4.75-3.08-15.22-2.76-20.2-.19-4.31,2.22-9.3,11.11-9.3,15.7v52.5h-23v-87h23l.5,10.01c10.54-17.01,44.27-16.24,53.71,1.28,1.64,3.04,4.79,13.13,4.79,16.21v59.5Z"/><rect x="308" y="385.84" width="23" height="122"/><rect x="767" y="385.84" width="23" height="122"/><path class="cls-1" d="M483.74,438.08c31.49-5.37,31.13,48.09,8.7,51.7-32.54,5.24-30.33-48.01-8.7-51.7Z"/><polygon class="cls-1" points="582 461.84 598.99 413.84 614.57 459.8 613.5 461.84 582 461.84"/><path class="cls-1" d="M690,444.84v-40h26.5c.39,0,6.66,2.14,7.43,2.57,11.63,6.59,12.59,27.87.78,34.64-1.09.62-6.45,2.79-7.21,2.79h-27.5Z"/><path class="cls-1" d="M270,471.84c-.27,3.36.44,7.15-.06,10.44-2.26,14.73-35.14,16.64-30.72-2.73.93-4.08,7.65-7.71,11.29-7.71h19.5Z"/><path d="M357.35,431.19c22.44-22.87,66.92-13.95,76.1,17.7,12.01,41.4-23.35,75.81-63.81,58.81-29.37-12.35-33.32-55.07-12.29-76.5ZM384.74,438.07c-23.8,4.05-24.07,50.22,1,54.52,37.08,6.36,36.97-60.98-1-54.52Z"/><path class="cls-1" d="M384.74,438.07c37.97-6.46,38.08,60.88,1,54.52-25.07-4.3-24.8-50.47-1-54.52Z"/></svg>